<svg xmlns="http://www.w3.org/2000/svg" viewBox="0 0 64 64" fill="none">
  <rect width="64" height="64" rx="18" fill="#F4F9FB" />
  <path
    d="M32 10c-8.8 0-16 6.47-16 15.34 0 4.56 1.88 8.1 4.19 11.23 2.17 2.94 3.76 6.23 4.42 9.82l1.24 6.71c.35 1.89 1.99 3.27 3.91 3.27h4.48c1.92 0 3.56-1.38 3.91-3.27l1.24-6.71c.66-3.59 2.25-6.88 4.42-9.82 2.31-3.13 4.19-6.67 4.19-11.23C48 16.47 40.8 10 32 10Z"
    fill="#2F6F8A"
  />
  <path
    d="M24.5 24.5c0 3.87 3.14 7 7 7h1c3.87 0 7-3.13 7-7"
    stroke="#F8FCFD"
    stroke-linecap="round"
    stroke-width="3"
  />
  <path
    d="M26 18.5c1.37 1.36 3.3 2.2 5.42 2.2 2.11 0 4.04-.84 5.41-2.2"
    stroke="#DCE8EE"
    stroke-linecap="round"
    stroke-width="2.5"
  />
</svg>
